<svg xmlns="http://www.w3.org/2000/svg" viewBox="0 0 960 640" role="img" aria-label="Late night train">
  <defs>
    <linearGradient id="sky-t" x1="0" y1="0" x2="0" y2="1">
      <stop offset="0%" stop-color="#0d0f1c" />
      <stop offset="100%" stop-color="#111a33" />
    </linearGradient>
    <linearGradient id="rails" x1="0" y1="0" x2="1" y2="0">
      <stop offset="0%" stop-color="#2b2b2b" />
      <stop offset="100%" stop-color="#1a1a1a" />
    </linearGradient>
  </defs>
  <rect width="960" height="640" fill="url(#sky-t)" />
  <rect y="420" width="960" height="220" fill="#0c0c0c" />
  <rect x="0" y="430" width="960" height="12" fill="#141414" />
  <rect x="0" y="462" width="960" height="8" fill="#111" />
  <rect x="0" y="494" width="960" height="6" fill="#0e0e0e" />
  <rect x="90" y="280" width="180" height="160" fill="#14192a" />
  <rect x="320" y="260" width="140" height="180" fill="#0f1728" />
  <rect x="520" y="240" width="170" height="200" fill="#13203a" />
  <rect x="740" y="270" width="150" height="170" fill="#0e1525" />
  <rect x="200" y="360" width="560" height="54" fill="#2d2d2d" />
  <rect x="200" y="350" width="460" height="34" fill="#f2d16b" />
  <rect x="200" y="340" width="220" height="18" fill="#f8e1a2" />
  <rect x="200" y="320" width="120" height="14" fill="#fef3d0" />
  <line x1="180" y1="440" x2="220" y2="640" stroke="#c0c0c0" stroke-width="4" />
  <line x1="260" y1="440" x2="300" y2="640" stroke="#c0c0c0" stroke-width="4" />
  <line x1="340" y1="440" x2="380" y2="640" stroke="#c0c0c0" stroke-width="4" />
  <line x1="420" y1="440" x2="460" y2="640" stroke="#c0c0c0" stroke-width="4" />
  <line x1="500" y1="440" x2="540" y2="640" stroke="#c0c0c0" stroke-width="4" />
  <line x1="580" y1="440" x2="620" y2="640" stroke="#c0c0c0" stroke-width="4" />
  <line x1="660" y1="440" x2="700" y2="640" stroke="#c0c0c0" stroke-width="4" />
  <line x1="740" y1="440" x2="780" y2="640" stroke="#c0c0c0" stroke-width="4" />
</svg>
