<svg xmlns="http://www.w3.org/2000/svg" viewBox="0 0 960 640" role="img" aria-label="Night rain city scene">
  <defs>
    <linearGradient id="sky-n" x1="0" y1="0" x2="0" y2="1">
      <stop offset="0%" stop-color="#0f111a" />
      <stop offset="100%" stop-color="#1a2340" />
    </linearGradient>
    <linearGradient id="street-n" x1="0" y1="0" x2="1" y2="0">
      <stop offset="0%" stop-color="#131313" />
      <stop offset="100%" stop-color="#0a0a0a" />
    </linearGradient>
  </defs>
  <rect width="960" height="640" fill="url(#sky-n)" />
  <rect y="420" width="960" height="220" fill="url(#street-n)" />
  <rect x="60" y="260" width="140" height="180" fill="#141725" />
  <rect x="240" y="220" width="110" height="220" fill="#12182f" />
  <rect x="400" y="240" width="150" height="210" fill="#0f1b38" />
  <rect x="600" y="210" width="130" height="240" fill="#11182d" />
  <rect x="770" y="270" width="120" height="180" fill="#0f1421" />
  <circle cx="720" cy="150" r="24" fill="#f2d16b" />
  <rect x="0" y="430" width="960" height="12" fill="#141414" />
  <rect x="0" y="462" width="960" height="8" fill="#111" />
  <rect x="0" y="494" width="960" height="6" fill="#0e0e0e" />
  <line x1="120" y1="0" x2="200" y2="640" stroke="#7cc7ff" stroke-width="2" stroke-opacity="0.25" />
  <line x1="320" y1="0" x2="420" y2="640" stroke="#7cc7ff" stroke-width="2" stroke-opacity="0.25" />
  <line x1="520" y1="0" x2="600" y2="640" stroke="#7cc7ff" stroke-width="2" stroke-opacity="0.25" />
  <line x1="720" y1="0" x2="800" y2="640" stroke="#7cc7ff" stroke-width="2" stroke-opacity="0.25" />
</svg>
