<svg xmlns="http://www.w3.org/2000/svg" viewBox="0 0 960 1280" role="img" aria-label="Tall alley at dusk">
  <defs>
    <linearGradient id="sky-vert" x1="0" y1="0" x2="0" y2="1">
      <stop offset="0%" stop-color="#1c2033" />
      <stop offset="100%" stop-color="#0c0f1a" />
    </linearGradient>
    <linearGradient id="light-vert" x1="0" y1="0" x2="0" y2="1">
      <stop offset="0%" stop-color="#f2d6a2" stop-opacity="0.8" />
      <stop offset="100%" stop-color="#f2d6a2" stop-opacity="0" />
    </linearGradient>
    <linearGradient id="brick-vert" x1="0" y1="0" x2="1" y2="0">
      <stop offset="0%" stop-color="#3a3f55" />
      <stop offset="100%" stop-color="#2b3044" />
    </linearGradient>
  </defs>

  <rect width="960" height="1280" fill="url(#sky-vert)" />

  <g opacity="0.8">
    <rect x="140" y="180" width="260" height="1020" fill="url(#brick-vert)" />
    <rect x="560" y="140" width="260" height="1060" fill="url(#brick-vert)" />
  </g>

  <g stroke="#1a1d2d" stroke-width="6" fill="none">
    <line x1="410" y1="260" x2="560" y2="230" />
    <line x1="410" y1="520" x2="560" y2="490" />
    <line x1="410" y1="780" x2="560" y2="750" />
  </g>

  <g fill="#0a0c13" opacity="0.65">
    <rect x="190" y="240" width="70" height="90" />
    <rect x="190" y="420" width="70" height="90" />
    <rect x="190" y="600" width="70" height="90" />
    <rect x="190" y="780" width="70" height="90" />
    <rect x="190" y="960" width="70" height="90" />
    <rect x="650" y="200" width="70" height="90" />
    <rect x="650" y="380" width="70" height="90" />
    <rect x="650" y="560" width="70" height="90" />
    <rect x="650" y="740" width="70" height="90" />
    <rect x="650" y="920" width="70" height="90" />
  </g>

  <g fill="#f2d6a2" opacity="0.35">
    <rect x="226" y="270" width="12" height="30" />
    <rect x="226" y="450" width="12" height="30" />
    <rect x="226" y="630" width="12" height="30" />
    <rect x="226" y="810" width="12" height="30" />
    <rect x="226" y="990" width="12" height="30" />
    <rect x="686" y="230" width="12" height="30" />
    <rect x="686" y="410" width="12" height="30" />
    <rect x="686" y="590" width="12" height="30" />
    <rect x="686" y="770" width="12" height="30" />
    <rect x="686" y="950" width="12" height="30" />
  </g>

  <g stroke="#111522" stroke-width="5" fill="none">
    <polyline points="320,220 320,1180 370,1180" />
    <polyline points="320,400 370,400 370,1180" />
    <polyline points="320,580 370,580" />
    <polyline points="320,760 370,760" />
    <polyline points="320,940 370,940" />
    <polyline points="740,180 740,1160 690,1160" />
    <polyline points="740,360 690,360 690,1160" />
    <polyline points="740,540 690,540" />
    <polyline points="740,720 690,720" />
    <polyline points="740,900 690,900" />
  </g>

  <g stroke="#1f2537" stroke-width="4">
    <line x1="480" y1="110" x2="480" y2="360" />
    <circle cx="480" cy="105" r="12" fill="#1f2537" />
  </g>

  <rect x="380" y="420" width="200" height="460" rx="8" fill="url(#light-vert)" />

  <g fill="#0b0e18" opacity="0.5">
    <rect x="0" y="1180" width="960" height="100" />
    <rect x="0" y="0" width="960" height="120" />
  </g>

  <g stroke="#0a0d15" stroke-width="2" opacity="0.35">
    <line x1="0" y1="1230" x2="960" y2="1230" />
    <line x1="0" y1="1255" x2="960" y2="1255" />
    <line x1="0" y1="1280" x2="960" y2="1280" />
  </g>
</svg>
